{"title":"Satyagraha 2013 BRRip 720p x264 Hindi ESubs - ViZNU [P2PDL]","uid":9227363,"size":1006039319,"categoryP":"video","categoryS":"hd___movies","magnet":"?xt=urn:btih:986650ff3c83128b6882112991787a7793ee2d72&amp;dn=Satyagraha+2013+BRRip+720p+x264+Hindi+ESubs+-+ViZNU+%5BP2PDL%5D&amp;tr=udp%3A%2F%2Ftracker.openbittorrent.com%3A80&amp;tr=udp%3A%2F%2Fopen.demonii.com%3A1337&amp;tr=udp%3A%2F%2Ftracker.coppersurfer.tk%3A6969&amp;tr=udp%3A%2F%2Fexodus.desync.com%3A6969","seeders":1,"leechers":1,"uploader":"Vitamin_X","files":-1,"time":1385025481,"description":"_______ Visit us at our Semi Public Bittorrent Community ________\n  &lt;a href=&quot;\nhttp://p2pdl.com&quot; rel=&quot;nofollow&quot; target=&quot;_NEW&quot;&gt;\nhttp://p2pdl.com&lt;/a&gt;  _____________________________ &lt;a href=&quot; http://p2pdl.com&quot; rel=&quot;nofollow&quot; target=&quot;_NEW&quot;&gt; http://p2pdl.com&lt;/a&gt;\n\n\n\nSatyagraha 2013 BRRip 720p x264 Hindi ESubs - ViZNU\n\n\nGenre: Drama\nPlot: Satyagraha is the story of a son who yearns \nfor a father. Of a father, who grieves for his lost \nson. Of a young woman who fights so hard with life \nthat she has forgotten to love. Of an ambitious \nrabble-rouser, for whom action is the knee-jerk mantra. \nIt is the story of how these four discover one another, \nand come together to raise hell, shaking the powers that \nbe to their very roots! But, Satyagraha is also the story \nof an influential power-hungry despot who will stop at \nnothing to destroy them.\nDirector: Prakash Jha\nStars: Kareena Kapoor, Amitabh Bachchan, Ajay Devgn.\nRated: U/A .\n\n\nIMDb: &lt;a href=&quot;\nhttp://www.imdb.com/title/tt2275802/&quot; rel=&quot;nofollow&quot; target=&quot;_NEW&quot;&gt;\nhttp://www.imdb.com/title/tt2275802/&lt;/a&gt;\n\n\n\nGeneral\nFormat                         : MPEG-4\nFile size                      : 952 MiB\nDuration                       : 2h 33mn\nOverall bit rate mode          : Variable\nOverall bit rate               : 867 Kbps\n\nVideo\nFormat                         : AVC\nBit rate                       : 784 Kbps\nWidth                          : 1 280 pixels\nHeight                         : 528 pixels\nDisplay aspect ratio           : 2.40:1\nFrame rate mode                : Constant\nFrame rate                     : 23.976 fps\nBit depth                      : 10 bits\nStream size                    : 860 MiB (90%)\nWriting library                : x264 core 138 r2358 9e941d1\n\nAudio\nFormat                         : AAC\nBit rate                       : 79.8 Kbps\nChannel count                  : 2 channels\nChannel positions              : Front: L R\nSampling rate                  : 48.0 KHz / 24.0 KHz\nStream size                    : 87.6 MiB (9%)\nLanguage                       : Hindi\n\n\nSubtitle                       : Yes (English)\n\nSource                         : 720p Blu-ray x264 DTS ESub [DDR-Exclusive]\n\nScreenshots:\n &lt;a href=&quot;\nhttp://i1.someimage.com/xtgUX4E.png&quot; rel=&quot;nofollow&quot; target=&quot;_NEW&quot;&gt;\nhttp://i1.someimage.com/xtgUX4E.png&lt;/a&gt;\n &lt;a href=&quot;\nhttp://i1.someimage.com/nYZSZ2a.png&quot; rel=&quot;nofollow&quot; target=&quot;_NEW&quot;&gt;\nhttp://i1.someimage.com/nYZSZ2a.png&lt;/a&gt;\n &lt;a href=&quot;\nhttp://i1.someimage.com/QJWtHQI.png&quot; rel=&quot;nofollow&quot; target=&quot;_NEW&quot;&gt;\nhttp://i1.someimage.com/QJWtHQI.png&lt;/a&gt;\n &lt;a href=&quot;\nhttp://i1.someimage.com/lBgM82G.png&quot; rel=&quot;nofollow&quot; target=&quot;_NEW&quot;&gt;\nhttp://i1.someimage.com/lBgM82G.png&lt;/a&gt;\n----------------------------------------------------------------------------------------------------\n\n\nEncoded using revolutionary 10bit encoding, which enables us to provide you more crispier \nand sharper images at small sizes, just make sure you follow our instructions without a fault.\nRecommend to you to use latest version of VLC player. Install K-Lite Codec Pack or shark007 codecs\nin case of any kind of problem in playback (For non-VLC Media Player users). Alternatively, install\nCore AVC codecs, the fastest decoder that there is coupled with Community Center Codec Pack and play\non Windows Media Player Classic. Check sample to be sure.\nEnjoy!\n\nEncoder Notes:Looking For Early Access To Anything You Can Provide DVDScr, R5, DVDR, BluRay, Direct\nAudio, Music Releases and Seedboxes. We require dedicated servers, so as to do more \nand fast releases of movies.\nIf You Got anything to offer please contact us at &quot;&lt;a class=&quot;__cf_email__&quot; href=&quot;/cdn-cgi/l/email-protection&quot; data-cfemail=&quot;34444653745c41475c1a575b59&quot;&gt;[email&amp;#160;protected]&lt;/a&gt;&lt;script cf-hash='f9e31' type=&quot;text/javascript&quot;&gt;\n/* &lt;![CDATA[ */!function(){try{var t=&quot;currentScript&quot;in document?document.currentScript:function(){for(var t=document.getElementsByTagName(&quot;script&quot;),e=t.length;e--;)if(t[e].getAttribute(&quot;cf-hash&quot;))return t[e]}();if(t&amp;&amp;t.previousSibling){var e,r,n,i,c=t.previousSibling,a=c.getAttribute(&quot;data-cfemail&quot;);if(a){for(e=&quot;&quot;,r=parseInt(a.substr(0,2),16),n=2;a.length-n;n+=2)i=parseInt(a.substr(n,2),16)^r,e+=String.fromCharCode(i);e=document.createTextNode(e),c.parentNode.replaceChild(e,c)}}}catch(u){}}();/* ]]&gt; */&lt;/script&gt;&quot;.\n\nFacebook Fan Page:  \nSearch P2PDL on FB and don't forget to hit like!!!\n\nSupport us, please consider a donation.\n\nFor more of our team uploads visit @            &lt;a href=&quot;\nhttp://thepiratebay.se/user/varuttee&quot; rel=&quot;nofollow&quot; target=&quot;_NEW&quot;&gt;\nhttp://thepiratebay.se/user/varuttee&lt;/a&gt;\t","torrent":{"xt":"urn:btih:986650ff3c83128b6882112991787a7793ee2d72","amp;dn":"Satyagraha+2013+BRRip+720p+x264+Hindi+ESubs+-+ViZNU+%5BP2PDL%5D","amp;tr":["udp%3A%2F%2Ftracker.openbittorrent.com%3A80","udp%3A%2F%2Fopen.demonii.com%3A1337","udp%3A%2F%2Ftracker.coppersurfer.tk%3A6969","udp%3A%2F%2Fexodus.desync.com%3A6969"],"infoHash":"986650ff3c83128b6882112991787a7793ee2d72","infoHashBuffer":{"type":"Buffer","data":[152,102,80,255,60,131,18,139,104,130,17,41,145,120,122,119,147,238,45,114]},"announce":[],"urlList":[]}}